# xmcd
#
# Track frame offsets: 
#        150
#        17467
#        33013
#        54399
#        79776
#        96246
#        119513
#        142242
#        164470
#        179884
#        215217
#        231385
#        250989
#
# Disc length: 3711 seconds
#
# Revision: 7
# Processed by: cddbd v1.5.2PL0 Copyright (c) Steve Scherf et al.
# Submitted via: ExactAudioCopy v1.1
#
DISCID=be0e7d0d
DTITLE=Bonamassa, Joe - A New Day Yesterday
DYEAR=2000
DGENRE=Blues
TTITLE0=Cradle Rock
TTITLE1=Walk In My Shadows
TTITLE2=A New Day Yesterday
TTITLE3=I Know Where I Belong
TTITLE4=Miss You, Hate You
TTITLE5=Nuthin' I Wouldn't Do (For A Woman Like You)
TTITLE6=Colour And Shape
TTITLE7=Headaches To Heartbreaks
TTITLE8=Trouble Waiting
TTITLE9=If Heartaches Were Nickels
TTITLE10=Current Situation
TTITLE11=Don't Burn Down That Bridge
TTITLE12=Miss You, Hate You [Remix]
EXTD=YEAR: 2001
EXTT0=
EXTT1=
EXTT2=
EXTT3=
EXTT4=
EXTT5=
EXTT6=
EXTT7=
EXTT8=
EXTT9=
EXTT10=
EXTT11=
EXTT12=
PLAYORDER=
